<svg id="Layer_1" data-name="Layer 1" xmlns="http://www.w3.org/2000/svg" viewBox="0 0 978.73 499.76"><defs><style>.cls-1,.cls-2{fill:#211100;}.cls-2{font-size:172px;font-family:Memphis-Bold, Memphis-Bold;}</style></defs><title>tronjour-logo-brown-new</title><path class="cls-1" d="M979.26,647.77a4.06,4.06,0,0,1,0,.48A1.87,1.87,0,0,0,979.26,647.77Z" transform="translate(-256.14 -420.81)"/><path class="cls-1" d="M978.36,644.32c.1-.86-.59-3.4-1.62-6.27C977.77,640.94,978.46,643.5,978.36,644.32Z" transform="translate(-256.14 -420.81)"/><path class="cls-1" d="M967.51,640c-.32-.86-.78-2.06-1.23-3.21A23.89,23.89,0,0,0,967.51,640Z" transform="translate(-256.14 -420.81)"/><path class="cls-1" d="M971.85,652.66a19.87,19.87,0,0,0-.52-2.15C971.42,651.24,971.7,651.94,971.85,652.66Z" transform="translate(-256.14 -420.81)"/><path class="cls-1" d="M970.23,647.27a.61.61,0,0,1,0,.12l-.1-.28S970.21,647.22,970.23,647.27Z" transform="translate(-256.14 -420.81)"/><path class="cls-1" d="M967.9,641.16c-.06-.19-.19-.57-.37-1.06A10.24,10.24,0,0,1,967.9,641.16Z" transform="translate(-256.14 -420.81)"/><path class="cls-1" d="M968.53,642.84c-.33-.81-.56-1.42-.63-1.68A10.32,10.32,0,0,0,968.53,642.84Z" transform="translate(-256.14 -420.81)"/><path class="cls-1" d="M943.83,549.23c-.64.62-1.59.16-2.37.66s-1.69-.14-2.38.59H937c-.87.91-2.23,0-2.95.87-1,.17-1.9-.09-2.81.4-1.32.72-3.88-.75-13.55-6.38a34.89,34.89,0,0,1-4.73-3.13c-1.41-1.17-3.11-1.94-4.38-3.29-1-.27-1.32-1.34-2.14-1.68-1.18-.49-1.81-1.59-2.88-2.22a16.4,16.4,0,0,1-2.86-2.68c-1.64-1.64-3.27-3.28-4.91-4.91a13.57,13.57,0,0,1-3-3.61c.56-1.07.11-2.2.37-3.23.12-.2.24-.39.35-.6a2.32,2.32,0,0,0,0-.55V517a9.44,9.44,0,0,0,.43-4.68c-.06-.69.35-1.16.48-1.71V487.28a9,9,0,0,1-.43-1.66,20.16,20.16,0,0,1,0-3c.07-.68-.36-1.15-.49-1.81v-2.65l-.49-.9v-2.4c-.18-.3-.29-.5-.43-.75v-2c-.31-.51-.65-1-.44-1.36,3.43-3,2.87-2.9,3.69-3.37a39.83,39.83,0,0,0,3.79-3.32c1.39-.61,3.23-3.09,4.38-3.9,2.18.87,4.93,2.44,6.16.07,0-.23,0-.59-.06-.87-2.06-1.62-4.51-2.54-5.93-4.7.06-.48-.2-1,.23-1.32,1,.56,2.1.23,3.07.31l1.51-.82,1.24-2.53-.74-.76-1.91-.12-.67-.76c.25-.48.48-.95.76-1.48h6.47l.65-.6v-2.71l-.46-.93v-2.38c-7.53-5.33-10.78-3.68-23.45-9.74l-1.3-1.22a14.06,14.06,0,0,0-3-4.45c-1.15-1.08-.37-.61-1.8-2.23l-2.91-1.2a3.33,3.33,0,0,1-1.46-.12,4.25,4.25,0,0,0-2.23-.37h-1.34l-.83-.43h-5.28l-3.71,1.58-1.69,1.86-1.44.69H857c-1.37-.69-2.94-.82-4.24-1.63-1.63-.22-2.73-1.57-4.34-2.09l-.29.78c2,5.15,4.53,5.69,6,7.37a7.13,7.13,0,0,0-2.85,2l-1.64-.8h-3.87l-.85.43h-3.3c-1.45,1-3.28-.15-4.57.9h-7.52a14.19,14.19,0,0,1-3.68-1.4c-.44.08-.77.07-.77.62a44.57,44.57,0,0,0,4.38,5.07l2,1.1c-.89,3-1,.49-4.57,7v3.29c.3.86.53,1.5.78,2.23-2.85,2.63-2.13,1-4,5.34v3c.54,1.66,1,3,1.46,4.44-1.92,1.4-2.08,3.65-2.86,5.58v3.22c.77,1.27,1.16,2.7,2.2,3.83l-1.1,1.81-.65,2.48c1.55,4.44-.51,1.61,4.95,8.2-.26.74-.51,1.45-.78,2.2v4.88l.88,2.47a9.12,9.12,0,0,1-.77,1.89,28.67,28.67,0,0,1-3.83,4.82c-1,.89-1.86,1.85-2.79,2.77a11.38,11.38,0,0,1-1,1,9,9,0,0,1-1.09.57l-1.65,4.48a3.78,3.78,0,0,1,0,1.76,5.93,5.93,0,0,0-.35,2.47c0,.23,0,.46,0,.65l-.4.76c-.31,2.84.39,5.63-.53,8.33v6.2l.47.89c0,3.45,0,6.92,0,10.4,0,.46-.12,1,.09,1.36.74,1.16.07,3.35.53,4.35,3.25-1.46,6.29-3.35,9.65-4.54a5.5,5.5,0,0,1,2.39-1.22,28.94,28.94,0,0,0,3.15-1.82c3.19-1.61,6.4-3.16,9.52-4.89,2.46-1.36,4.78-2.95,7.32-4.17,0,0,11.47-7.45,13.15-9.35a.4.4,0,0,1,.18-.14c1.15-.41,1.74-1.45,2.65-2.25-.71-.58-1.12-1.34-2-1.67a3.51,3.51,0,0,1-1-.89c-1.7-1.68-3.41-3.35-5.07-5.08s-3.67-3.29-5-5.42c-7.05-6.54-6.2-7.91-16.52-12.68h-3.54l-.67-.7v-3.39l-.54-1.07v-3.3c-.55-.65-.41-1-.41-4.94l-.46-.91c0-2.81,0-5.67,0-8.52,0-1.51-.34-3.07.4-4.54.16-.3,0-.76,0-1.14v-2l.48-.93c-.26-1.5.57-2.91.57-4.43.54-.78.22-1.82.79-2.59.16-4,8.44-20.85,12.28-23.43,3.21-.89,4.39-1.57,6.26-2l.22-.36c.3.34-.07.28-.22.36a1.53,1.53,0,0,1-.35,1.06,8.26,8.26,0,0,0-1.44,2.28c-.25.81-.78,1.48-1,2.39.23,1-.39,1.95-.64,2.95-3.74,1.54-2.36.61-5.29,3.57l-1,2.71c.13,1.65-.2,3.32.31,5a7.64,7.64,0,0,0-3,2.78,9.15,9.15,0,0,0-1.22,3.13,3,3,0,0,0,0,2.42,5.28,5.28,0,0,1,.2,1.11,3.43,3.43,0,0,0,.3,1.32,12.22,12.22,0,0,1,.6,1.89,9.85,9.85,0,0,0-2.54,2.17,17.16,17.16,0,0,0-1,2,6,6,0,0,0-.56,3.55c.16.58.54,1.11.4,1.74s.65,1.24.42,2.09c-1.55,2.16-1,1.38-1.75,4.21l.4.65v2c.9,1.44,1.73,6.51,2.57,7.8.21-.05.46,0,.62-.15a1.27,1.27,0,0,1,1.31-.21c.85.5,1.8.26,2.66.51a13.15,13.15,0,0,1,2.51,1,32,32,0,0,1,3.67,2.27,27.14,27.14,0,0,1,4.52,3.47c1,.26,1.44,1.12,2.1,1.74s1.53,1,2.19,1.66a26.67,26.67,0,0,0,3.48,3c.55.4,1.1.79,1.62,1.24s1.26.86,1.8,1.39a30.82,30.82,0,0,0,4,3,49.71,49.71,0,0,0,9.38,5.58,31.8,31.8,0,0,0,3.13,1.31,14.43,14.43,0,0,1,2.36.73c.83.48,1.81.23,2.62.76a1.07,1.07,0,0,0,1.32-.27c-.15-1.11.75-2.1.52-3.29.72-1.11.31-2.39.48-3.38l.43-.91c0-3.21,0-6.29,0-9.38,0-.46.15-1-.07-1.37-.67-1-.23-2.11-.46-3.31-.62-.65-.35-1.74-.8-2.65a14.41,14.41,0,0,1-.71-2.6c-.58-2-4.77-10.53-4.82-10.64.27-.18.57-.41.89-.6,1.55-.94,5.53-3.76,6-4.15,1-.89,2.26-1.54,3.23-2.52.08-.08.26-.06.44-.09l.53.7V476l.44.86v2.32c1,1.72-.13,3,.93,5.1l.46,6.23c-.05,26.53.22,19.17-.48,22.18v4.52l-.5.92v3.45c-.81-.29-1.6-.25-2.27-.88a9.36,9.36,0,0,0-2.26-1.18c0,.45-.12.82,0,1a24.33,24.33,0,0,0,1.44,2.59,2.16,2.16,0,0,1,.69,2.17,11.84,11.84,0,0,0-1.21.38c-.49.21-1,.48-1.5.75h-1.42l-.82.43H878.2c-.64-.62-1.51-.24-2.18-.51s-1.48-.31-2.19-.54-1.58-.51-2.35-.81-1.39-.6-1.93-.84h-1.34l-2.59,2.65a26.14,26.14,0,0,1-3.77,2.94,85.7,85.7,0,0,1-7.5,4.71c-1.52.86-2.91,1.91-4.5,2.66s-3.15,1.84-4.77,2.67c-7,3.54-14,7-21,10.51a4.19,4.19,0,0,1-1.22.6c-1.28.13-2.21,1-3.33,1.46s-2.17,1.07-3.28,1.63a4.61,4.61,0,0,0,.16,1.4,2.7,2.7,0,0,1,.31,1.32,14.18,14.18,0,0,0,.71,3.53,11.13,11.13,0,0,1,.68,2.38c0,1,.72,1.65,1,2.53a22.43,22.43,0,0,0,1.54,3.77c.63,1.29,1.5,2.47,2.09,3.78a30.3,30.3,0,0,0,2.43,3.57,18.36,18.36,0,0,0,2.08,3,17.64,17.64,0,0,1,3.22,4.2,18.67,18.67,0,0,1,2.29,1.39,51.48,51.48,0,0,0,7.07,4.54c2.1,1.23,4.44,1.95,6.6,3.06a4.38,4.38,0,0,0,.64.22c3.17.94,6.22,2.25,9.46,3,.62.55,1.57,0,2.15.65a61,61,0,0,0,6.22,1.12,8,8,0,0,1,.9,1.66,39.52,39.52,0,0,0,1.7,5.13c.71,1.67,1.22,3.41,2,5.07s1.15,3.41,1.86,5.08,1.14,3.42,1.85,5.1c.52,1.22.74,2.61,1.31,3.83a37.52,37.52,0,0,1,1.46,4,14.51,14.51,0,0,1,1,3.22,9.53,9.53,0,0,0,1,3,3.84,3.84,0,0,0,2,2.34,3.1,3.1,0,0,1,1.33,1.26,24,24,0,0,1,2.42,4.37c.59,1.64,1.59,3.1,2,5.23v1.59l.48.8v3.76c.23.5.36.77.44,1,0,.88,0,1.66,0,2.43a6.85,6.85,0,0,0,.33,2.47,8.56,8.56,0,0,1,.18,2.69,4,4,0,0,0,2.94,1.67,4.79,4.79,0,0,1,1.46.58c.24.47.39.74.53,1-.65.65-.07,1.69-.73,2.36-.12.13-.07.44-.08.67a3.24,3.24,0,0,1-.31,1.55,7.65,7.65,0,0,0-.32,1.54c-.14.5-.36,1-.56,1.52-153.67,0-142,.26-142.9-.37.13-.46.26-1,.5-1.86-.26-2.47.44-5.4-.44-8.28a7.12,7.12,0,0,1,0-2l-.53-1a6.77,6.77,0,0,0-.07-2.37,6.45,6.45,0,0,1-.33-2.24c0-2.16,0-4.32,0-5.93l.78-3.18a21.15,21.15,0,0,0-2.07-2.92c-1.61-1.65-2.89-3.57-4.59-5.15-2.15-2-4.17-4.13-6.24-6.2a9.05,9.05,0,0,1-1-1,34.4,34.4,0,0,1-4.06-6.57,9.11,9.11,0,0,1-.95-3.48,4.21,4.21,0,0,0-.42-1.27v-2.32l.14,0,.52-2.24c1.34-1.33,2.77-2.63,4.06-4.07s3.07-2.31,4.3-3.79a.83.83,0,0,1,.35-.3,5.21,5.21,0,0,0,1.65-1.22c.51-.45,1.17-.74,1.63-1.22,1.15-1.24,2.77-2,3.81-3.31,1.9-1.09,3.16-2.9,4.77-4.3a25.25,25.25,0,0,0,4-5,11.59,11.59,0,0,0,1.61-5.37c0-.54,0-1.08,0-1.57a2.19,2.19,0,0,1-.23-2.3,17.2,17.2,0,0,1,6.23-2.32c.87-.81,2.16-.07,3-.82l3-.09h3.48c.38,0,.85-.12,1.14.05,1.09.63,2.36.42,3.52.82,1.41.49,5.8,1.83,7.05,2.34.84.34,1.71.62,2.53,1a15.74,15.74,0,0,0,2.55.89c.88.24,1.61.8,2.53,1s2,.66,3,1a8.44,8.44,0,0,0,2.82.8c1.15.84,2.17,0,3.83.92h3.32a3.11,3.11,0,0,0,3.31,0h7.79l.91-.49h3.32l.75-.43h2c1.46-.86,2.25-.13,3.31-.91,1.54,0,2.93-.66,4.41-1,.39-.07.49-.28.51-.88a6.89,6.89,0,0,0-1.45-1.21,9.38,9.38,0,0,1-2.44-2.07,31.41,31.41,0,0,1-3.54-3.92c-.82-1.17-2.06-2-2.81-3.32-.34-.58-.9-1-1.3-1.58s-.72-1.16-1.1-1.72-.9-1-1.29-1.6c-.59-.89-1-1.85-1.63-2.74-1-1.58-2-3.21-2.89-4.89-.36-.67-.63-1.38-1-2.05a5.84,5.84,0,0,0-.66-.84c-1.92.3-3.36,1.58-5.15,1.94-3.41,1.62-7,2.75-10.47,4.31a27.22,27.22,0,0,1-3.8,1.44,31.42,31.42,0,0,0-3.57,1.39L782,568a33.37,33.37,0,0,1-3.8,1.4c-1.48.38-2.81,1.09-4.25,1.55a16.55,16.55,0,0,0-4.41,1.74c-2.26.62-4.42,1.51-6.62,2.27-4.18,1.47-8.41,2.82-12.62,4.23-1.57.52-3.18.94-4.73,1.51s-3.13,1-4.73,1.46-3.45,1.08-5.14,1.7c-1.27.46-2.63.62-3.88,1.17s-2.63.65-3.89,1.13c-1.06.41-2.21.49-3.25.92-.87.37-19.45,5.19-20,5.51-.88-.17-1.6.46-2.43.51a3.42,3.42,0,0,0-1.56.28,8.86,8.86,0,0,1-1.74.43c-1.46.37-2.92.68-4.36,1.11-.57.18-1.21-.06-1.78.33s-1.42-.08-2,.54c-.86,0-1.63.56-2.41.5s-1.6.56-2.44.51c-1.17-.09-2.17.7-3.37.54-.36-.05-.78.38-1.27.42a7.7,7.7,0,0,0-1.54.42h-2.08c-2.35-.84-3.14-1.45-5.43-.45-1.24-.17-2.33.75-3.59.5-1.47.63-12.26,2.75-13.11,3.2-1.1-.17-2,.61-3.13.52-.57.7-1.51.16-2.15.64s-1.58-.06-2.15.64c-.31-.05-8.93,2-9.25,2-.66.63-1.72,0-2.35.77-.91-.18-14.93,4-17.23,4.41-.51.47-1.18.17-1.76.39a16.71,16.71,0,0,1-4.54,1.34c-2.08.88-4.28,1.42-6.33,2.2-.47-.22-.88-.42-1.28-.63l-1-.52c-.4-.21-.8-.44-1.22-.63s-.84-.34-1.26-.5l-1.28-.45c-.35-.13-.7-.27-1.06-.38a5.75,5.75,0,0,1-1.27-.43c-.33-.23-.9.14-1.12-.51l2.35-.15c.7-.69,1.63-.25,2.42-.51,2.42-.81,4.91-1.4,7.35-2.17.56-.17,1-.63,1.73-.52s1.25-.48,1.87-.76,1.09-.54,1.65-.77a7.27,7.27,0,0,0,1.46-.57c2.08-1.54,4.45-2.68,6.16-4.7.24-.27.65-.38.94-.63a3.73,3.73,0,0,0,1.12-1.12,4,4,0,0,1,1.12-1.43c1.2-1,1.86-2.43,3-3.49.18-1,1.41-1.41,1.64-2.44,4.73-6.27,10.4-20.44,11-21.41,0-.76,5.56-12.87,6.31-14.49.24.07.47.07.5.15.48,1.18,1,2.37,1.37,3.58a17.93,17.93,0,0,0,1.13,2.72c.74,1.41,1.44,2.85,2.16,4.28a28.3,28.3,0,0,0,4.48,6.29c.82.82,1.67,1.6,2.44,2.46a16.49,16.49,0,0,0,3,2.48c.87.59,1.81,1.1,2.74,1.62a28.44,28.44,0,0,1,3.12,1.34c.16.12.46,0,.68.06,4.52,1.14,1.69.91,10.62.91.32-.16.59-.41.86-.41a6.17,6.17,0,0,0,2.44-.48c.28-.11.6,0,.81.43v2.36l.53,1c-.38,1.48.29,2.9.6,4.49,1,0,2,0,3,.05a2.67,2.67,0,0,0,1.3-.39,2.46,2.46,0,0,1,.91-.08h1.74c2.79-.8,2.76-.3,3.37-.87.87.14,1.6-.5,2.42-.5,1,0,1.64-.83,2.55-.93a1.3,1.3,0,0,0,1.09-.68,19.52,19.52,0,0,1-.76-2.14c-.17-.73.13-1.56-.51-2.22v-2l-.46-.86v-2L699,574c.68-.82-.83.2,7.85-5,.13,4,0,7.84.07,11.62l-.5.93v1.38l-.91,2c.85.51-.27.67,9.17-2a4.68,4.68,0,0,1,1.28-.42c.94,0,1.7-.58,2.66-.59.78,0,1.53-.68,2.33-.78a18.61,18.61,0,0,0,2.61-.73c.22-.06.42-.22.63-.22a14.93,14.93,0,0,0,2.82-.8,12.3,12.3,0,0,0,3-.87,121.25,121.25,0,0,1,6.11-19.62c0-1.47,7.19-16,8.84-18.67.83-1.35,1.53-2.79,2.33-4.17.62-1,1.31-2,2-3.06,1.12-1.72,2.28-3.4,3.5-5.05s2.26-3,3.31-4.61c.66-1,1.61-1.67,2.16-2.66a17.51,17.51,0,0,1,1.91-2.27,23.93,23.93,0,0,1,2-2.48c2.16-2.09,4.26-4.24,6.48-6.46-5-3-13.51-4.14-15-4.39l-.82-.42a17.53,17.53,0,0,0-2.29,0c-.82.1-1.45-.47-2.2-.48-2.24,0-4.48,0-6.67,0l-.92.48h-2.82l-.87.45h-2.39c-1.25.31-2.46.71-3.7,1a29.66,29.66,0,0,0-3.45,1c-1.2.45-2.4.87-3.61,1.31a33.07,33.07,0,0,0-3.47,1.74c-1.15.58-2.33,1.12-3.45,1.76-2,1.14-4.88,3.24-6.32,4.25a.87.87,0,0,0-.33,0,27.94,27.94,0,0,0-6.32,3.06,41.76,41.76,0,0,0-6.6,5.26c-.94.92-1.54,2.09-2.47,3a6.9,6.9,0,0,0-1.11,1.44,24.64,24.64,0,0,0-2.25,3.68c-1.61,1.72-1.81,4.17-3.09,6.06,0,.14-4.34,11.93-3.79,14.64l-.49.88v2c-.57.71-.42,1.18-.42,4.47-.19.39-.35.73-.46.94,0,15.36.09,13.9-.24,14.21-1.47.28-2.91.86-4.4.59l-.9.48h-3.46c-1.22,0-2.33-.81-3.5-.44-2.07-1-2.68-.42-7-3.29a18.83,18.83,0,0,0-1.6-1.29,8.12,8.12,0,0,1-2.7-2.47c-1.1-1.44-2.18-2.91-3.14-4.45a20.9,20.9,0,0,1-2-3.55c-.35-.93-.8-1.8-1.14-2.72-.44-1.2-1-2.34-1.38-3.58-.18-.65-.48-1.26-.71-1.9a6.49,6.49,0,0,1-.59-1.93c0-.74-.48-1.28-.53-1.93,1.12-3.55,5.37-11.49,6.45-12.55,1.75-3.47,7.31-11.59,8.18-12.28a31.4,31.4,0,0,1,4-5.25,36.73,36.73,0,0,1,4.74-5.31,1.63,1.63,0,0,0,.48-.5,11.93,11.93,0,0,1,2.52-3c.42-.45.87-.88,1.28-1.33.09-.1.09-.28.13-.43a1.27,1.27,0,0,0-1.16-.86,3.61,3.61,0,0,1-.89.37,6.1,6.1,0,0,0-2.79,1.45,33.65,33.65,0,0,1-2.66,2.14,22.13,22.13,0,0,0-2.27,1.92c-.81.69-1.69,1.3-2.46,2-2,1.83-3.41,4.15-5.46,5.92-.16.14-.21.4-.35.58a34.41,34.41,0,0,1-2.23,2.87c-1.26,1.34-1.95,3.1-3.28,4.38-1.22,2.62-3.31,4.73-4.37,7.44a48.72,48.72,0,0,0-3.52,6.1c-2.51,5.11-5.12,10.18-7.49,15.36s-5.11,10.21-7.63,15.33c-2.15,4.37-8.26,13.2-11.9,15.1a20.37,20.37,0,0,1-4.31,3.37c-5.55,3.81-10,4.88-15.15,6.44H598l-.93.5h-2.32l-.9.42h-6.37c-1,0-2-.07-3,0a13.6,13.6,0,0,1-3.13-.46c-.75-.1-1.55.1-2.2-.45a36,36,0,0,1-15.94-8.27c-.75-.66-1.43-1.41-2.14-2.12q-2.3-2.28-4.58-4.58a3.69,3.69,0,0,1-.92-1,6.26,6.26,0,0,0-1.25-1.62,15.5,15.5,0,0,0-1.22-1.64c-1.49-1.36-2.19-3.31-3.63-4.69-2.19-3.36-4.35-6.73-6.58-10.07-1.39-2.07-2.68-4.22-4.08-6.29a13.64,13.64,0,0,1-1.74-2.4,41.65,41.65,0,0,0-3.41-6.43,32.3,32.3,0,0,0-3.23-4.4,14.93,14.93,0,0,1-1.59-1.94,7.56,7.56,0,0,0-2.28-2.26c-.89-.53-1.43-1.44-2.3-1.87a14.64,14.64,0,0,1-2.31-1.89,10.36,10.36,0,0,1-1.43-.67,34.18,34.18,0,0,0-5.74-3.19c-2.29-1-4.64-1.79-6.94-2.73-.79.08-1.38-.56-2.2-.54s-1.42-.54-2.21-.45c-.64-.61-1.46-.34-2.2-.47a4,4,0,0,1-.89-.43c-1.63.27-3.19-.76-4.69-.49l-.86-.4c-1.38-.11-2.63.19-3.78-.46-.11-.06-3.5,0-3.64,0l-1-.47c-11.92,0,.86-.46-14.32-.46l-.95-.47c-14.69,0-1.82-.46-13.42-.46l-.93-.46c-.94,0-1.72,0-2.49,0-1.48.1-1.3-.46-3.36-.47h-1.57l-.84-.43a47.39,47.39,0,0,1-8.91-1.64c-6.58-10.39-4-6.51-7.64-10.61l-1.52-.71h-3.08a5.71,5.71,0,0,0-1.11,1.18,3.65,3.65,0,0,0,.29,2.25,1.32,1.32,0,0,1-.18,1.58,2.09,2.09,0,0,1-.82-.06,51.5,51.5,0,0,0-6.39-3c-.36-.11-.76-.09-1.12-.19s-.85-.3-1.26-.45c-.64,0-1.25,0-1.87,0a3.74,3.74,0,0,0-1.56.21c-.59.34-1.22.09-2,.47l-1.94,2.11c-.42.58-.39,1.86-.79,3a2,2,0,0,0,.06,1.35c.22.48,1.13,4.8,2.49,6.78,3.62,5.29,4.71,5.59,7.67,8.09,2.56,2.15,12.48,6.81,15.7,7.88,1.16,1.55,1.21,3.36,1.84,5v2.7a2.43,2.43,0,0,1,.47,1.53c0,2.47-.05,4.94,0,7.41a7.07,7.07,0,0,1-.49,1.8v4.06l-.48.88c.24,1.64-1.27,6.28-1.29,6.38a20.91,20.91,0,0,1-1.3,3c-.6.37-.91,1.19-1.76,1.34-.78.86-5.74,3.21-6.84,3.61-1.6.58-6.35,2.71-8,4.66s-4.12,3.4-5.31,7.32c-.35,1.15-1,2.21-1,3.47-.86,1.6-.27,3.33-.41,5,.65,1.21.5,2.67,1.23,3.86a2.44,2.44,0,0,1,.15.84c-.85.79-8.08,4.82-11.5,9.69-.95,1.36-2,2.7-2.91,3.94-5.27,1.69-20.14,5.14-20.79,7.3l.74.76c1.06,0,8.78,1.76,8.85,1.81,1.18-.25,2.2.59,3.36.5A8.22,8.22,0,0,1,392,630c-.94,3.69-.24,2.11-1,4v2.25l-.4.75v8.12c.16.29.27.49.42.74v1.8c1,2.86.87,9,8.89,19.36,5.06,6.52,16.14,13.15,24.64,13.73l.78.36c3.95,0,3.65,0,3.81.07,1,.68,2.09.28,3.09.4l.88-.44c2-.12,3.75.26,5.44-.49,1.1.18,2-.63,3.12-.52,1.64-.79,21.7-4.87,28.69-28.51.61-.67,0-1.72.76-2.35.88-6.18.11-4.72.94-6.67V639.2c-.92-3.39,0-3.87-.9-5.47.2-.85-.93-4.47-1.32-5.24a.81.81,0,0,1,.24-1.06c.77-.16,1.68.13,2.39-.5.8.14,1.47-.54,2.19-.45,1.06.14,1.89-.66,2.91-.52.85-.55,1.91-.35,2.8-.86,1.32-.75,1.13,0,3.64-1.16a.86.86,0,0,0,.49-1c-1.8-1.61-2.8-.61-5.36-2-1,.12-8.56-2.32-11-2.44-.54-.62-1.4-.11-1.94-.54s-1.39-.06-1.91-.46c-7.9-10.6-18.39-15.64-26.68-16.61l-.79-.36h-2.9c-.3,0-.69.08-.9-.07-1-.69-2.1-.26-3.09-.4l-.88.45c-3.63.25-1-.8-12.39,2.29-1.11-1.24-.89-2.9-1.55-4.23V596c.53-1.54.73-3,1.75-4.39,4.36-4.36,4.34-5.27,14.2-8.2h1.81c.66-.9,1.92-.2,9.08-.5,1.12,0,2.06.52,3.14.54a4.13,4.13,0,0,1,1.45.62c.48.22.95.48,1.36.69h3.34l1.26-.51a29.37,29.37,0,0,0,7.62,2.86c1.13,0,.53.57,6.21,2,5.08,1.3,7.56,2.54,8.63,2.55.81,0,1.42.59,2.2.53s1.39.68,2.2.47c.8.61,1.87.18,2.62.59s1.41.09,2,.48,1.35.21,2,.34a4.84,4.84,0,0,1,.91.43h1.94l.66.39c.94.25,2-.24,2.91.54h2l.92.5h2.8l.89.43c7.93,0-.35.46,10.14.46l1,.46h11.69c.46,0,1,.14,1.37-.07.78-.51,1-.39,6.8-.39l.86-.42c1.6-.17,3,.25,4.31-.47.24-.13.61,0,.92,0h1.8l.88-.44h2.6c6.58,6.66,8,14.06,10.67,16.6h1.76l.69-.4h2l.93-.5h2.82l.87-.44h6.06l.83-.45c12.89,0,11-.13,11.63.37-6.73.51-18,8.21-21.92,15.66-3.71,1.22-20,6.14-21,9.7l.45.93a14.9,14.9,0,0,0,4.67,1.62,16.83,16.83,0,0,1,2.86.61c.82.39,1.71,0,2.44.47s1.66.13,2.62.36c.57.75,1.66.12,2.55.6,0,10.51-.14,10.34.45,11.47a4.32,4.32,0,0,0,.56,2.65c.34.79.29,1.62.63,2.39.92,2.09,1.89,4.14,2.87,6.19a25.73,25.73,0,0,0,3.43,5.08,43.28,43.28,0,0,0,4.72,4.76,23.26,23.26,0,0,0,3.15,2.23,37.11,37.11,0,0,0,7.5,3.77,16.44,16.44,0,0,1,3,1c1.17-.11,2.18.68,3.37.55.32,0,.68.27,1,.42h3.21l.76.41h3l.88-.43H594c.24-.14.44-.36.64-.36a13.42,13.42,0,0,0,2.89-.55,25.07,25.07,0,0,0,4.06-1.34c.56-.25,1.09-.54,1.65-.78a8.72,8.72,0,0,1,1.9-.74c.55-.11,1-.63,1.54-.94a29.52,29.52,0,0,0,5.66-4.21c.71-.7,1.37-1.47,2.14-2.12a34.16,34.16,0,0,0,3.29-3.82,8.6,8.6,0,0,0,1.18-1.93,56.1,56.1,0,0,0,2.91-6.17,34.29,34.29,0,0,0,1.72-6.52,6.87,6.87,0,0,1,.44-1.25v-6.28a23.42,23.42,0,0,1,0-2.78c.1-.89-.57-1.58-.49-2.43.11-1-.69-1.87-.53-2.89-.89-2-1.26-4.2-2.37-6.11a1.49,1.49,0,0,1-.23-1.39c1.15-.14,2.07-1.09,3.32-1.18,2.59-1,5.23-1.91,7.81-3a4.32,4.32,0,0,1,2.71-.64l4.16,2.08c6.72,6.76,4.55,4.87,7.78,6.18h4.35l.75-.42h1.8c.57-.2.92-.32,1.27-.46a6.22,6.22,0,0,0,2.95-1.63,5.08,5.08,0,0,0,1.51-2.74c.68-.58.18-1.49.63-2.16s.19-1.5.21-2.26c0-1.39,0-2.78,0-3.84a12.59,12.59,0,0,1,.51-1.83c.22-.47.66-.85.88-1.33,1.24-2.73,3.45-4.66,5.59-6.63a16.45,16.45,0,0,1,3.44-2.18c4.23-2.27,2.24-1.36,11.32-4.55,1,.15,1.87-.66,2.9-.52.7-.72,1.85-.15,2.55-.86,1,.14,1.93-.44,2.9-.47.73,0,1.22-.6,2-.51,1.14.12,2.17-.69,3.34-.53.7-.68,1.69-.1,2.41-.54a3.92,3.92,0,0,1,2-.3h0l.22-.37c.3.35-.08.29-.22.37h0c0,.23,0,.45-.06.78-8.74,8.69-4.88,5-9.21,8.24a4.42,4.42,0,0,1-.47,2.74v3.59l-.49.91v2.39c-.17.31-.28.51-.43.76v2c-.81,1.38-.17,2.29-.91,3.31a5.51,5.51,0,0,1-.42,2.22c-.22.7-.13,1.46-.43,2.21s-.06,1.66-.53,2.42c.19,1.23-1.18,4.31-1,5.56-.67.73-.38,1.74-.79,2.59a17.06,17.06,0,0,0-.51,2.65,10.93,10.93,0,0,0-.64,3.32c-.66.7-.07,1.68-.53,2.41s-.14,1.67-.34,2.55c-.11.2-.25.48-.35.67a15.43,15.43,0,0,1-.31,2.57,11.87,11.87,0,0,0-.3,2.85c-.08.14-.22.41-.37.71,0,.83,0,1.68,0,2.53a2.37,2.37,0,0,1-.2,1.1,3.51,3.51,0,0,0-.18,2.21l2.54.82,1.87,1.82c.42,1.08,1.22,2,1.1,3.23.46.5.36,1.14.48,1.74a15.56,15.56,0,0,0,.68,1.91,1.4,1.4,0,0,1,0,.43l-1,.88h-2.1l-.89-.48h-2.38l-2-1.36-1.16-2.3a19.18,19.18,0,0,0,0-2.27c-.1-.81.47-1.45.46-2.2a4.15,4.15,0,0,1,.45-2c0-6,.22-3.76-2.25-7.83a3.85,3.85,0,0,0,.46-2c.67-1.36.62-2.94,1.24-4.32,0-1.61,1.12-3,1.1-4.61.81-1.86.82-4,1.77-5.8-.15-1,.67-1.88.52-2.9.69-.72.17-1.84.85-2.56a8.89,8.89,0,0,1,.52-2.89c.13-.59.35-1.16.44-1.75a6.5,6.5,0,0,1,.33-1.77c.25-.6,0-1.42.21-2a8.74,8.74,0,0,0,.45-2.45,2.77,2.77,0,0,1,.44-.88v-2.35c.2-.39.34-.66.44-.87V612l.42-.78v-3c-.26-.36-.45-.71-.9-.73-2.27.73-3.09,2.77-4.24,4.67a2.79,2.79,0,0,1-.39,2.31v2.81c-.91.86,0,2.22-.88,3-.11,1.06.16,2.1-.48,3a4.89,4.89,0,0,1-.47,2.44c.25,1-.42,1.75-.5,2.66,0,.52-.33,1-.41,1.52a5.47,5.47,0,0,1-.39,2c-.31.56,0,1.37-.54,1.94.14.8-.37,1.46-.49,2.2s-.33,1.47-.46,2.21-.47,1.41-.54,2.19-.71,1.4-.75,2.11c-.05.87-.57,1.6-.54,2.42s-.51,1.4-.56,2.2a5.2,5.2,0,0,1-.8,2.34c-.08.11,0,.3-.05.45-.39,1.83-.88,3.64-1.34,5.44,1.1,1.61,3.2,2.16,4.07,3.9v1.36c-1.46,0-1.88,2.23-2.29,3.73.11.24.28.57.48,1v1.92l.47.86c0,3.79.1,3.81-.42,4.2h-55.4a7.27,7.27,0,0,0-1.46,1.56,8,8,0,0,1-1.6,1.94c-.63.67-1.31,1.31-1.95,2a2.57,2.57,0,0,0-.3.57c.66.43.66.43,3.09.43h32.65c52.84,0,48.15,0,48.86-.06.43-2.45.78-2.29.52-3.47-4.57-4.51-7.79-13.5-7.3-18.22l-.52-1c.22-1.91-.33-3.78.47-5.55a2.34,2.34,0,0,0,0-.92v-2.72c.81-1.6.13-1.47.93-3.54-.29-1,.33-1.79.52-2.65a24.1,24.1,0,0,1,.81-3c.76-2,1.27-4.17,2-6.22a14.05,14.05,0,0,1,1.56-3.52c.86-1.25,1.77-2.47,2.71-3.66,1.18-1.49,2.31-3,3.44-4.54s2.38-3.13,3.52-4.74a34.39,34.39,0,0,1,2.16-2.92c1-1.15,1.66-2.58,3-3.45,1.73-.95,3.45-1.91,5.11-3a24.26,24.26,0,0,0,5.13-4.18,4.37,4.37,0,0,1,1.17-1.11,9.68,9.68,0,0,0,2.61-2.23c1.93-1.89,3.86-3.78,5.73-5.73,1.28-1.33,3-2.2,4.14-3.63a.62.62,0,0,1,.18-.14c1.8-1.11,3.6-2.24,5.41-3.34a3.81,3.81,0,0,1,1-.43,2,2,0,0,1,.68.15v1.35l-1,2a23.47,23.47,0,0,1-7.39,5.75,17.4,17.4,0,0,0-2.38,1.76c-.36.27-.74.52-.86.59a22.79,22.79,0,0,1-2.3,3.44,40.19,40.19,0,0,1-5,4.72c-1.91,1.38-3.84,2.73-5.73,4.12-1.22.9-2.43,1.84-3.55,2.84a23,23,0,0,0-2.36,3,12.54,12.54,0,0,0-1.6,3.24,7.72,7.72,0,0,0-.17,1.12,10.81,10.81,0,0,1-.42,1.18c3.93,4.53,11.06,8.38,23.59,18.87,3.24,7.26,3.29,11.24,5.52,13.65.14.92,1.17,1.21,1.44,2.07a3.39,3.39,0,0,1-1.27,2.88L735.74,659l.16.18-2.09,1.77V664c1.39,3.16,6.75,6.17,6.68,8.25-41.62.06-38-.08-38.64.33-.06,1.08.3,1.4,3.08,6.18,228,0,215.87.16,216.86-.2l.48-.59a7.43,7.43,0,0,0-1.41-4.8c-.8-1.3-1.52-2.63-2.19-4a4.06,4.06,0,0,0-1.26-1.46,5,5,0,0,1-1-.24,34.62,34.62,0,0,1-4.07-2.49,19.18,19.18,0,0,1-4.31-4.12,22.08,22.08,0,0,1-2.63-4.77,17.4,17.4,0,0,1-1.11-3.89,9.39,9.39,0,0,1-.59-3.12c0-.32-.28-.68-.42-1v-2.76l-.49-.92v-6l-.44-.92v-5c-.32-.88-.58-1.59-.92-2.49v-1.69c-.89-2.25-6.42-14.72-6.51-19.16-.73-.7-.12-1.86-.9-2.57v-2l-.41-.69c-.18-1,.24-2.14-.51-2.95,0-.83,0-1.52,0-2.22a1.66,1.66,0,0,0-.17-.87,2.6,2.6,0,0,1-.28-1.56V586.16l.48-1c0-1.46-.44-1.42.72-5.23a19.78,19.78,0,0,1,1.14-2.2c1-2.36,2.65-4.43,3.7-7v-7.87c.16-.26.29-.46.4-.66s.21-.39.29-.54c.64-.19,1.1-.7,1.79-.55a1.24,1.24,0,0,0,.9-.07c.92-.7,2.17,0,3-.82a19.32,19.32,0,0,0,3.13-.43c1.21-.15,2.33-.74,3.58-.61.18,0,.4-.22.65-.37h2.09c.49-.62,1.23-.46,1.91-.46s1-.68,1.74-.47,1.3-.38,2-.45,1.41.12,2-.48h2c1.5-.87,2.3-.13,3.3-.91,1,.21,1.77-.52,2.66-.45,1.34.12,2.51-.72,3.83-.52,1-.75,2.28-.17,3.25-.88,1.32.13,2.5-.75,3.83-.49a.67.67,0,0,0,.44-.09c.67-.55,1.48-.27,2.22-.4l1.21-.7v-1.73C944.54,550.22,944.18,549.73,943.83,549.23ZM904.94,449.12c.62-.1.84.32,1.1.68.05.37.13.75-.34,1.08l-1.35-.63ZM901,445.4c1,.43,2.25.44,3.18,1.55v1.34l-.09,0c-.38.26.09.2-3.37.2a9,9,0,0,1-1.57-2.91A1.88,1.88,0,0,1,901,445.4Zm-26.24-17.06a1,1,0,0,1,1.12,0c.66.54,1.49.08,2.24.45.36.51.1,1.14.16,1.75-1,1.78-.64,1.28-1.16,1.72h-1.67c-.55-.38-1.65-.37-1.82-1.66Zm-10.85-2.16.9-.85c1.15.81,7.05,4.71,7.84,5.88l-.51.59C871,431.37,866,427.52,863.91,426.18Zm14.31,54.12c-2.86,1.51-3.88,2.18-6.41,2.55h0l-.22.36c-.3-.35.08-.28.22-.36h0c1.49-2.17,5.54-4.37,5.87-4.53C878.47,480.22,878.31,479.68,878.22,480.3Zm8.57-9.42a21.54,21.54,0,0,1-2.89,2.19c-1,.57-1.6,1.6-2.69,2.11a18.4,18.4,0,0,0-2.84,2.09c-1.55-.39-4.33-9.43-4.27-10.3-.69-.77-.07-.86-.9-3.88,0-.68,0-5.69.06-6.36.48-.36-.72-.28,8.09-.28,1.6-.47.62-.06,4.63-1.23.68,1.55.76,3.33,1.55,4.88a44.92,44.92,0,0,0,1.24,5.71c.4,1.39-.15,1.28.68,2.78C888.51,469.4,887.67,470.16,886.79,470.88Zm4,.35c-.51-.35-.18-.34-.7-2.14.28-.35.56-.7.83-1,.51.35.18.32.7,2.17Zm.76-4.62-3-12.07c.46-.35.94-.69,1.39-1.07s1.15-.24,1.69-.63a2.83,2.83,0,0,1,1.69-.6c.58,0,1.15-.37,1.74-.4,1.3-.07,2.6,0,3.84,0l.65.56A11.78,11.78,0,0,0,901,457c-.39,2.33-3.53,4.41-8.89,9.45C892,466.54,891.74,466.54,891.5,466.61ZM699.11,548.49c.76-1.51.07-2.25.68-3.21.46-.73-.13-1.71.52-2.41a.32.32,0,0,0,.09-.21c-.2-1.39.21-2,2.52-8.4,1.11-3.1,5.3-8.77,5.93-9a10,10,0,0,0,2.35-1.92c.88-.28,1.62-1,2.66-1.08.08-.12.15-.24.22-.36.3.35-.08.28-.22.36-6.67,9.07-5.09,10.29-6.85,13.65-.1,1.36-.86,2.62-.54,4-.15.27-.27.47-.48.86,0,8.23-.47-3-.47,13.93l.47,1c0,9.89.46.76.46,9.35a46.45,46.45,0,0,1-7.67,4.12A135.2,135.2,0,0,1,699.11,548.49Zm-2.5,22.67,1.34-.66c.14,1,.86,1.8.52,2.93l-2.26,1.15c-.63-.55-.32-1.18-.42-1.89ZM392.9,626.79c-2.83.32-2.36-.35-2.69-.31-1.4.15-2.63-.77-4.06-.49l-.19-.8c3.3-.5,1-.77,8-2.43a.61.61,0,0,1,.78.48C394.13,624.35,393.52,625.55,392.9,626.79ZM467.67,621c1,.45,2,.49,3,.84,1.19.42,2.54.32,3.64,1.21v.76c-.11.12-.16.23-.21.23-.85,0-1.59.48-2.4.54-2.27.19-1,.47-3.12.47l-2-3.91A.82.82,0,0,1,467.67,621Zm-65.43,2.39c.35-1.15,1.51-1.72,2-2.89.83-.15,1.81.11,2.59-.5h2.78c1.77,1.44,8.14,8.51,8.2,8.61a5.56,5.56,0,0,1-3.46-.2c-.27-.13.58-.1-10.28-.1l-1-.42-1.61-.09c-.25-.45-.51-.91-.71-1.29C400.72,625.12,401.9,624.44,402.24,623.37Zm18,8.17,2.85,2.8-1.28,1.33c-3.34-.75-9.46-3.5-12.3-4.33a3.52,3.52,0,0,1,1.95-.24C412.23,631.67,412,631.54,420.27,631.54Zm-22.39,3.82c.24-.4,0-1.05,0-1.61l1.06-1.14,2.13-.41c.1.06,18.16,5.74,19.48,6.49v2.4c-.93.14-1.69.78-2.64.63s-1.37.64-2.2.49a3.38,3.38,0,0,0-2,.37c-.65.3-1.5-.07-2.2.44-.41.3.23-.28-2.8.56h-1.62c-.25.16-.46.39-.65.37-1.24-.13-2.34.64-3.57.57-.93-.06-1.22,1.07-3,0-.19-.11-.46-.06-.92-.1-.4-.42-.92-1-1.49-1.61C397.5,636.32,397.41,636.14,397.88,635.36Zm5,23.92c-1.9-2.41-2.85-5.22-4.07-8,2-4.88,2.42-2.52,4.53-3.92a5.66,5.66,0,0,0,2.66-.5c1.33.27,2.51-.62,3.82-.48,1-.74,2.29-.12,3.25-.88,1.1.23,6.54-1.43,7.79-1.36.22.63.43,1.26.67,2-4.25,4-12.12,9.58-13.29,11-1.12.42-1.77,1.43-2.69,2.17Zm14.27,12.06c-1.51.15-7.2-3.47-9.94-6.76,0-4.8,1.14-2.35,16.86-15.8l1.91,1.55c-.65,2.33-6.72,18.29-6.79,18.7Zm8.31-39.48c.14-.34,0-.33.58-.11l0,.16Zm9.5,41a10.45,10.45,0,0,0-1.22,1.73h-7.12l-.9-.42h-2.12l-1.54-1.53c0-.93-.24-1.71.3-2.39.06-.28,5.78-16.61,6.83-19.11.09,0,.26-.13.37-.08.69.26,1.36.56,2.09.88a8.38,8.38,0,0,0,.47,2.72c.32.63,0,1.46.44,2.21s-.17,1.7.49,2.26c.21,1-.15,1.82.35,2.61s-.12,1.71.53,2.41c-.06,1.23.59,2.34.6,3.56a7.4,7.4,0,0,0,.43,1.59Zm-.65-45.12c-.06.19-.32.32-.51.5h-3.25c-.45-.82.11-1.89-.64-2.61a5.38,5.38,0,0,0-.49-2.65c.22-.88-.49-1.63-.42-2.43s-.58-1.72-.54-2.56c.68-.43-.67-.31,7.43-.31l1.93.75C437.28,619.48,434.38,627.64,434.35,627.74Zm4.5,3.29c.49-.25,1-.7,1.59-.21-.43.9-1.3,1.21-2.19,1.62h-1.56a1,1,0,0,1,0-1.3C437.33,631,438.09,631.14,438.85,631Zm11.9,37.16a33.47,33.47,0,0,1-10.44,5.36,4.18,4.18,0,0,1-2-2.84c-.16-1.2-.87-2.31-.48-3.48-.19-.37-.46-.65-.44-.91.13-1.24-.66-2.34-.52-3.58a5.73,5.73,0,0,1-.48-2.65c-.08-.82-.63-1.56-.45-2.43-.68-1-.26-2.22-.81-3.27-.36-.71.2-.55-.62-3.57,2.49-.94,1.81-.74,2.53-.74.32.32.85.62,1.05,1.06.66,1.5,3.06,2.91,3.61,4.4a1.07,1.07,0,0,0,.3.34c1.66,1.36,6.22,7.12,6.31,7.22.55.64,1.21,1.18,1.76,1.82a7.33,7.33,0,0,1,.69,1.29Zm7.18-7.07a16,16,0,0,1-2.27,2.32h-1.94c-6.84-6.84-8.67-9.59-14-15v-1.32q.33-.54.78-1.32c1.17.64,18.34,6.64,18.45,6.67a3.91,3.91,0,0,1,2.49,2.63A43.53,43.53,0,0,1,457.93,661.12Zm6.68-22.42v4.53l-.4.75a10.83,10.83,0,0,1-.55,4.63l-.14.58-1.06.92c-2.75-.5-19.85-6.65-20.83-7.21a4,4,0,0,1-.08-1.78c.83-.64,2.36,0,3.74-.72.49-.25,1.21,0,1.74,0l.9-.46c1.29-.07,2.39.17,3.36-.47,1.47.24,2.82-.68,4.28-.48a7.09,7.09,0,0,1,3.49-.44l.91-.46h4ZM462,628.82c1,1.3,1.18,2.83,1.67,4.32a13.83,13.83,0,0,1-3.12,2.06c-.94.14-1.91-.22-2.71.45H456l-1,.52a7.22,7.22,0,0,0-3.1.35,5.59,5.59,0,0,1-2.08.14l-.74.39c-.92.16-1.82-.07-2.72.39-.63.31-1.58,0-2.23.26a5.67,5.67,0,0,1-2.18.31,3.93,3.93,0,0,1-1.77-2.47,6.64,6.64,0,0,1,1.4-1.4,10.06,10.06,0,0,0,2.43-2.06c1.65-1.67,2-1.13,3.56-1.93,9.37,0,1.33-.46,9.28-.46l.91-.47c1.69,0,2.4.07,3.1-.36C461.12,628.65,461.67,628.82,462,628.82Zm-5.27-7h1.54c1.3,1.22.49,0,3,4.47-1.13.36-2.23-.23-3,.61h-3.38l-.91.47c-4.18,0-3.13,0-4-.08.1-.95,1.72-1.13,5.26-4.74ZM444,611.32l1.39-.68c2.53.85,4.41,2.69,6.64,3.93a5.1,5.1,0,0,1,1,1,2,2,0,0,1-2.22-.21h-3.74l-.85-.44c-1.16-.12-2.46.07-3.85-.13A24.47,24.47,0,0,1,444,611.32Zm1.68,6.79.8.4,5,.16c.58.71,1.71,0,2,.76-1.81,2.81-3,2.91-3.19,3.13-1.19,1.43-2.92,2.23-4.13,3.63a5.88,5.88,0,0,1-2.36,1.64c-1-.36-1.9.5-3,.46a11.63,11.63,0,0,1-3-.16c.95-3.42,2.25-6.61,3.44-10C441.83,618.06,441.86,618.11,445.67,618.11Zm-17.39-10.64H435l.86.4h1.65l1.94.68.63,1.17v2.38c-.58.59-.2,1.77-1.27,2.26H428.35l-.66-.56C427.4,609.21,426.22,612.4,428.28,607.47Zm-6.22,1.36c2.08,1.71,2.41,2.28,2.05,3.68-1-1.13-2.37-2-2.88-3.56Zm-.53,9.28c4.31,0,3.24,0,4.09.14a18.16,18.16,0,0,1,.19,2.34,1.93,1.93,0,0,1,.4,1.47,3.52,3.52,0,0,0,.41,1.52c.16.49-.05,1.11.13,1.59.49,1.31.23.44.63,3.11h-2.13l-.79.46h-2.19a10.24,10.24,0,0,1-1.84-1.93c-1-1.77-3.05-2.86-6.63-7.65a14.3,14.3,0,0,1,2.35-.17l.68-.38h3.78Zm-5.87-7c2.81,2.55,3.09,2.87,3.57,4-1.27.42-2.59,0-3.85.25a3.32,3.32,0,0,1-2.34.37,2.2,2.2,0,0,0-1.38.37c-.72-.61-.73-.61-.71-1.74a1.9,1.9,0,0,1,.67-.9C413,612.71,414.25,611.76,415.66,611.13Zm43.59-28.65h-1.89c-1.29-.55-2.26-1.34-3.59-1.49L452,579.32c-1.51-.38-1.05-.24-1.58-.56h-4.37l-.79.42h-5.09c-.55-.14-1-.61-1.7-.46-.84.19-1.38-.44-2.05-.69,1.08-3.73,1.55-3.95,4.95-11.53,0-1.29.92-2.42.51-3.73a.88.88,0,0,1,1,.52,25.84,25.84,0,0,1,1.57,2.48c2.14,3.87,3.49,3.78,4.13,5.42.37,1,8.31,6.85,9.55,7.68,1.57,1,2.64,2.53,4.51,4C461.14,582.85,460.15,583.15,459.25,582.48Zm53.4-41.38c-.93-.36-2-.28-2.81-.81-.5.07-4.48-1-5.33-1-.27,0-.55-.23-.92-.41H500c-1.71-.68-.11-.47-15.43-.47l-.84.46h-5.44c-2,.94-4.16.19-6.48.61l-.59.31h-5a4.7,4.7,0,0,1-2,.49c-2.46,0-4.93,0-7.48,0l-.76.45h-4.61c-1.61-.67-3.28-.45-5-.43a11.47,11.47,0,0,1-1.75-.09l-.71-.38h-2.29c-.33-.15-.69-.46-1-.42-1.26.13-2.35-.57-3.6-.58-2.13,0-20.34-6.48-23.72-17.33-.62-2-.86-1.25.72-4.46,1.83-1,1.84-1.28,4.42-.06,6.74,3.19,14.6,8.19,23,10.8.68-.23,1.11.48,1.74.46,2.05,0,1.7.07,2.49.46h2.8l.88.45h3.74l.91.48h7l.87.44h16.71l.91.48h7.45l.87.45h3.74l.91.48h2.84c.19.11.47.39.72.37,1.25-.11,2.34.63,3.58.58.76,0,1.4.63,2.2.47.74.64,1.74.37,2.59.79s1.86.55,2.75,1a53.12,53.12,0,0,1,11,5.7s3.52,2.88,5.27,4.26c0,.39.06.9.1,1.44C521.87,546.06,524.72,545.68,512.65,541.1Zm40.18,96c-2-.54-6.11-.88-7.67-1.8-.11-.07-.16-.25-.25-.39l9.41-3.49C554.55,632.66,554.89,631.32,552.83,637.15Zm60.73-6.1,1.22,2.45c-1.06.6-17,6.83-18.58,6.83-.53-.28-.14.08-1.36-1.2v-.68l1.29-2c.88-.77-.14.12,16-5.27A7.34,7.34,0,0,1,613.56,631.05Zm-9.4-7.12a17.31,17.31,0,0,1,1.63-1.74A34.75,34.75,0,0,1,611,627.3c-.22,1.13-.36.68-7.8,3.05-.21.07-.43.26-.63.23-1-.14-1.7.73-2.66.49h0l-.21.37c-.31-.35.07-.29.21-.37h0C599.76,630.13,602.33,626.54,604.16,623.93ZM575,625.65c.93-.25,2,0,2.83-.58,1,.1,1.84-.63,2.88-.53.71.06,1.4-.54,2.19-.44.89-.69,1.89-.39,3.07-.39v11.23c-.62.61-.38-.16-3.17.81C582.39,635.29,574.88,626.58,575,625.65Zm4.67,16.09c-2.93-.43-1.39-.35-3.13-.83a16.09,16.09,0,0,0-1.7-.27c1.27-.72,1.5.18,3.25-.75a11,11,0,0,1,2.22.07C580.49,640.72,580,641.14,579.66,641.74Zm1.45-24.91c1.22,0,2.3-.85,3.77-.47l.64,1.18v1.2l-1.24.72c-.78.09-1.66-.12-2.38.47-1.24-.09-7,1.57-7.74,1.54-.66.66-1.67,0-2.42.91,0-.59,0-.88-.07-1.14C574.5,619,577.83,618,581.11,616.83Zm-16.82,11.58c2.65-.29,5.56-1.71,6.92-1.46a17.62,17.62,0,0,1,2.59,2.94c.61,1.09,1.65,1.76,2.23,2.88s1.84,1.8,2.54,2.76a1.08,1.08,0,0,1-.24.66,2.22,2.22,0,0,1-.45.36,8.64,8.64,0,0,1-2.16.06,3.86,3.86,0,0,0-2.19.48h-7.09c-1.39,1.22-2.76-.18-4.36,0l-1.53-1.74A48.06,48.06,0,0,1,564.29,628.41Zm-4,26.21c-1.15-4-1.19-3.65-1.18-5.56l-.43-.81v-5c.22-.61.41-1.17.61-1.74.13-.06.26-.17.39-.17,2.54,0,5.08,0,7.42,0l11.92,3v2.64a2,2,0,0,1-1.58,1.18,40.3,40.3,0,0,0-4.79,2c-.24.1-4.7,2-6.52,2.79l-.75.34c-.44.23-1.62.62-3.48,1.49A10.33,10.33,0,0,1,560.31,654.62Zm9.93,14.16c-6.21-6-4.75-4.48-8.17-9.87.06-.69.55-.87.88-1.29a2.9,2.9,0,0,0,1-.23c2-1.22,4.32-1.86,6.4-3,.39-.2,5.81-2.52,6-2.59a19,19,0,0,0,3.39-1.67,18.55,18.55,0,0,1,2.08,2.08,5.31,5.31,0,0,1-.67,1.42,40.57,40.57,0,0,0-3.54,5c-1.76,2.56-3.48,5.14-5.29,7.67A15.61,15.61,0,0,1,570.24,668.78Zm17.62,5.05-.65.76c-1.1,0-2.25,0-3.18,0-3.53-1-7-1.56-10-3.52V669c4.76-6.66,10.41-14.65,10.48-14.75h1.66l.75.64c.41,11.4.49-1,.49,11.4.13.25.28.52.45.83Zm1.49-57.9a4.63,4.63,0,0,0,2.68.3c1.25-.12,2.33.54,3.52.63.2,0,.37.36.69.7-1.19.15-2.18,0-3.3.1l-3.88.85c-.44-.66-.16-1.28-.29-1.88Zm.08,18.21c-.23-.32-.16.47-.16-6.14-.8-1.66-.36-3.34-.45-5,3.3-.84,2.37-.7,4.22-.7l.65-.38c.71-.19,1.5,0,2.22-.16a1.82,1.82,0,0,0,.69-.38H599l.8-.41h2.83l-7.49,11.81Zm16,34.66a3.05,3.05,0,0,1-.29.36c-1.69,1.84-6.92,3.77-8.09,4.35-.68.34-1.54,0-2.15.61a4.07,4.07,0,0,0-2.73.67l-1-.8c-.06-3.3,0-2.08,0-4.93-.11-.21-.28-.55-.47-.94,0-14.24-.62,1.1-.45-13.68a10.59,10.59,0,0,0,2.55-1c1.1,1.28,9.77,11,12.66,13.95Zm3-2.59c-7-7.13-9.83-11.2-13.18-14.67l1.32-1.89c1.63.56,3.36.73,5,1.33.82-.21,1.41.59,2.19.5.12,0,8.52,2.34,10.53,2.81l.31.07a4.67,4.67,0,0,1,1.13.62C615.07,657.53,611.66,664,608.38,666.21Zm8.7-17.2a22,22,0,0,1-.13,2.37c-1.06.13-2.05,0-3,.08-1-.26.26,0-4-1.2-3.67-1-11.71-3.06-12.84-4.07v-2.34c.26-.71,1-.93,1.63-1.09.16,0,6.39-2.39,9.22-3.42l1.2-.43.15,0c1.61-1,3.61-1.14,5.22-2.18.16-.11.45,0,.69,0,1.42.77,1.07,2.4,1.74,3.78v1.74c.78,1.32.41,2.66.44,3.94C617.51,647.09,617.8,648.14,617.08,649Zm1.26-23.48a29.76,29.76,0,0,0-4.5-5.3c.25-.26.45-.48.7-.73,10.35,0,2.93.46,10.69.46,1.3.61,2.81.4,4.19,1.12C627.67,622.28,621.41,624.17,618.34,625.53Zm12.72-4.43s0,0,0-.06l.09-.06.08.08,0,.06C631.22,621.3,631.12,621.29,631.06,621.1Zm26.16-8.22c-1.44,3.57,0,.88-1.76,5.8a7.76,7.76,0,0,1-.58,1.08l-1.16.65h-2.8c-1,.72-2.16.39-3.37.5l-.8.43h-2c-.67.64-1.5.34-2.23.51a19.05,19.05,0,0,0-2.11.76c-7.39-5-.11-1.28-11.38-7.12.19,0,15.19-5.51,19.62-5.75.64-.6,1.49-.25,2.18-.49a7.15,7.15,0,0,1,2-.43c.58,0,1.15-.33,1.74-.43,1.33-.22,1.08.2,2.23-.47H659c.68-.08,1.14-.75,1.83-.35C660.79,608.4,658.62,609.39,657.22,612.88ZM861.66,594c-.27-.12-.63-.43-.95-.4-1.19.13-2.2-.65-3.36-.54-1.32-.72-5.52-1.57-8-3.11-2.31-.58-4.22-2-6.4-2.91-1.4-1.21-3.18-1.75-4.76-2.66a13.62,13.62,0,0,0-2.06-.81c.86-.34,1.65,0,2.15-.62.87.1,1.49.73,2.32.91a150.32,150.32,0,0,0,4.63,1.78,7.43,7.43,0,0,0,2.37.68c.8.2,1.59.43,2.37.68s1.82-.15,2.67.45c.27.18.75.08,1.13.08H857a2.43,2.43,0,0,0,2.44.21,2.91,2.91,0,0,1,1.33-.2c1.39,0,2.77,0,4.15,0l.87-.46h3.13a3.91,3.91,0,0,1,2.3-.38c1.84,1.68,3.44,3.55,3.64,6.26C868.68,594.26,871.55,594,861.66,594Zm33.82,52c1.08,2.73,1.88,5.55,2.82,8.33a19.45,19.45,0,0,0,1.22,3.86c.17.3,0,.76.1,1.14s.23.86.45,1.63v5.23l.68,1.42c1.39,1.28,4.41,1,6,2.29.21.6,1,1.19.61,2.12-.6.28.7.2-7.48.2l-1.4-1.31c-1.64-3-1.58-5.61-3.19-10.05l-1.24-1.5c-.13-.16-.23-.43-.4-.5-1-.39-1.41-1.35-1.91-2.29v-3.7l-.45-1c.36-1.78-1.18-7.62-3.54-9.84-1.59-4.86-5.63-14.82-5.84-16.36a25.81,25.81,0,0,1-2-5.5,35.1,35.1,0,0,1-1.28-3.38c0-.1-2.33-7-2.35-7.06a15.82,15.82,0,0,1-1.15-3.64,4,4,0,0,0-.54-1.72c-.69-1.83-.89-3.81-1.71-5.6a4.21,4.21,0,0,1-.11-1.41c.38-.4.75-.79,1-1.09h1.47l1.39,1.29a20.11,20.11,0,0,1,1.66,3.58,16.26,16.26,0,0,1,.48,2.2,20.08,20.08,0,0,0,1,3.22l.19.53c.67,1.81,2.68,7.19,2.72,7.3.6,1.37,1,2.82,1.6,4.22s.92,2.7,1.38,4c3,8.71,3.81,12.21,6.21,18.91C893.49,642.84,895.42,644,895.48,646.05Zm25.61-92.33h-2.15c-.82.92-2.17,0-3,.92h-2.07c-.83.93-2.18,0-3,.93h-2.07c-.83.92-2.19,0-3,.93h-2.06a2.67,2.67,0,0,1-1.76.48,9.45,9.45,0,0,0-1.55.38,1.42,1.42,0,0,1-.13-1.66,3.11,3.11,0,0,0,.14-2.67,8.59,8.59,0,0,1-.34-2.51c-.85-2.3-1.78-4.61-2.86-6.86a33.46,33.46,0,0,1-1.27-3.47v-3.55c.26-.66.51-1.27.78-2,1.73.92,2.52,2.81,4.27,3.52a37.3,37.3,0,0,0,4.21,3.51c1.4,1.16,3,2.06,4.43,3.18,3.8,3,12.25,7.23,14.06,8.14C922.77,553.52,921.7,552.88,921.09,553.72Zm8.25,0h-2.1l-.65-.57c.67-.72.51.14,2.71-.78l1.25.66Z" transform="translate(-256.14 -420.81)"/><path class="cls-1" d="M603.94,683c-1.27.87-2.76,1-4.05,1.61s-2.8.55-4.15,1.07a4.89,4.89,0,0,1-1.82,0l-.93.47h-8.57c-2.74-.75-2.46-.27-3-.5a4.41,4.41,0,0,0-2-.42c-.77,0-1.4-.65-2.2-.48-1.68-.68-3.57-.74-5-1.82H449c-.1,0-6.69,2.37-7.84,2.32-1.19.84-1.78,0-3.92.92h-4.62l-.64.37a3.42,3.42,0,0,1-2.59-.39H424.8c-1.86-.87-1.82-.26-3.15-.82-.72-.31-1.66-.05-2.41-.54a19.35,19.35,0,0,1-5.6-1.87c-34.63,0-151.64.33-151.64.33v11.05l916,.67V683Z" transform="translate(-256.14 -420.81)"/><path class="cls-1" d="M766.07,516.66c-.33.44-6.14,7.47-6.22,7.57-.17,1-1.29,1.32-1.54,2.24a83.82,83.82,0,0,0-5.67,9c-3.18,3.06-15.81,32.24-15.58,35.11.07.89-.55,1.55-.57,2.43a9.53,9.53,0,0,1-.71,2.59,3.36,3.36,0,0,0,0,2c1.31.73,2.24-.52,3.72-.66,1.78-.18,7.53-2.34,8.9-2.46.93-.35,22.46-7.34,22.7-7.41a14.6,14.6,0,0,1,4.21-1.63c1.57-.46,9.23-3.39,10-3.66,9-3.48,6.25-2.59,7.35-2.91.64-.19,6.43-2.48,7.14-2.86,1.35-.71,4.09-1.43,5.8-2.53,0-.25.11-.51,0-.7-.73-1.6-3.52-8.52-4.13-10.51-.35-1.14-1-2.2-1-3.47-.74-.69-.12-1.85-.86-2.55-.05-1.37-.76-2.65-.51-4a1.2,1.2,0,0,0-.06-.4l-.38-.74V518.44c.16-.29.31-.56.45-.83,0-3,.11-3.19-.33-3.73-5.75,0-5.23.17-6.74-.47h-3.18l-.74-.4c-1.17-.19-2.31.27-3.3-.52h-2c-.58-.56.85.33-9-2.15a12.44,12.44,0,0,0-3.63,2.62C768.05,515.2,768.14,513.9,766.07,516.66Z" transform="translate(-256.14 -420.81)"/><path class="cls-1" d="M564.1,678.59c-1.42-.78-4.78-4.6-6.11-6.23h-94.6c-6.21,6.32-5.62,5-6.72,6.42C572.31,678.78,563.54,678.85,564.1,678.59Z" transform="translate(-256.14 -420.81)"/><path class="cls-1" d="M802.79,532.43c.17.34.43.62.42.88,0,1.32,1.17,4.67,1,5.56a13.65,13.65,0,0,1,.86,2.55,22.57,22.57,0,0,0,2.84,6.83c.37.49,2.14,2.56,2.75,2.64.86-.27.27-5.62.52-8.4l.41-.82c0-8.41.46,1.35.46-11.59l-.43-.84a16.73,16.73,0,0,0-1.31-5.9c-.44-2.42.43-4.41.91-6.46.64-.66.11-1.68.75-2.36.12-.13.08-.44.08-.67,0-.84,0-1.67,0-2.49-1.15-.62-1.87.09-2.66.25a20.36,20.36,0,0,0-2.33.85c-.78.26-1.58.46-2.34.67l-1,1.06v3c-1,1.08,0,1.72-.93,3.65v2.35l-.42.79v5.77c.15.27.27.46.42.72Z" transform="translate(-256.14 -420.81)"/><path class="cls-1" d="M404.77,678.57c0-.14.06-.28.11-.55a27.13,27.13,0,0,1-5.83-5.65c-.5-.08-137,.09-137,.09v6.2S404.41,678.88,404.77,678.57Z" transform="translate(-256.14 -420.81)"/><path class="cls-1" d="M991.8,673.89c-2,.89-2.76,2.65-3.23,4.74,1.22.21,189.43-.06,189.43-.06v-6.22H994.47C993.66,672.87,992.55,673.08,991.8,673.89Z" transform="translate(-256.14 -420.81)"/><polygon class="cls-1" points="615.68 62.04 615.68 62.04 615.68 62.04 615.68 62.04 615.68 62.04"/><path class="cls-1" d="M699.72,597.82l-.22.37C699.64,598.11,700,598.17,699.72,597.82Z" transform="translate(-256.14 -420.81)"/><polygon class="cls-1" points="443.37 177.38 443.37 177.38 443.37 177.38 443.37 177.38"/><polygon class="cls-1" points="343.78 210.26 343.78 210.26 343.78 210.26 343.78 210.26 343.78 210.26"/><path class="cls-1" d="M850.26,431.54l-.22.36h0C850.19,431.82,850.56,431.88,850.26,431.54Z" transform="translate(-256.14 -420.81)"/><path class="cls-1" d="M1234.5,755.21c.08.14,0,.52.36.22l-.36-.22Z" transform="translate(-256.14 -420.81)"/><path class="cls-1" d="M1155.39,900.44l.36.22C1155.68,900.51,1155.74,900.13,1155.39,900.44Z" transform="translate(-256.14 -420.81)"/><path class="cls-1" d="M1007.46,576.68c-.31-1.16-.17-2.43-.83-3.5a12.34,12.34,0,0,0-.83-3,20.38,20.38,0,0,0-.95-3.24c-.19-.48-.3-1-.5-1.5s-.07-1.17-.4-1.76c-.24-.42-.06-1.06-.16-1.58a4.84,4.84,0,0,0-.44-1v-2.3a7.15,7.15,0,0,0-.82-1.42c-1.47-1.57-2.63-3.41-4.29-4.79a1.91,1.91,0,0,1-.63-.67c-.4-1.06-1.36-1.64-2-2.48-.51-1.47-1.8-2.6-1.91-4.31a23.63,23.63,0,0,1,2.45.77c4.26-4.16,3.2-5.28,1.82-10.05.41-1.4,1.89-2.19,2.62-3.55.38-.72,1.19-1.2,1.75-1.83s1.06-1.51,1.71-2.13c1.19-1.11,1.94-2.54,3.09-3.68-.38-1.22-.72-2.37-1.09-3.51,0-.14-.18-.25-.27-.38a39.14,39.14,0,0,0-2.4-3.3,19,19,0,0,0-6.12-4.74c-.75-.35-1.5-.73-2.16-1h-1.68c-5.34,4.15-6.2,6.32-10.15,9-4.51-1.32-4.23-1.32-6.87-1.2l-1.49.82-.72,1.47V524c.67,2,1.26,3.79,2.75,5v1.17l-1.36,2.71v.95c.47,1,.94,1.9,1.44,2.93-.16.4-.32.81-.51,1.32v2.62a5.45,5.45,0,0,0,2,2.76l1.16.26.57.94-.72,1.58c-5.73,5.77-.74.5-7.44,7-.28.56-.51,1-.73,1.51v1.22l-.93,2.27a4.5,4.5,0,0,1-.4.79c-1.16,1.62-1.76,3.55-2.79,5.24a13,13,0,0,1-1.2,3.4,18.2,18.2,0,0,0-1,3.45,32.51,32.51,0,0,0-1,4.15c-.15,1.21-.69,2.34-.59,3.59,0,.33-.29.68-.43,1v15.1c-.44,1.29-1.08,2.23-1.45,3.33a33.1,33.1,0,0,1-1.34,3.36,42.23,42.23,0,0,0-1.86,3.9c-.52,1.42-1.28,2.75-1.94,4.12-.06.14-.22.26-.23.4a10.43,10.43,0,0,1-1.21,2.93c-.43,1.05-.84,2.1-1.32,3.13a39.61,39.61,0,0,0-2.23,5.68c-.26.86-.6,1.7-.9,2.56,0,3.59-.07,2.88.87,6.26a90.22,90.22,0,0,0,3.75,9.69c.4,1,.86,1.93,1.23,2.92s.89,2.08,1.33,3.13q2.06,4.91,3.78,9.92a7,7,0,0,1,.56,1.71c0,.7.37,1.31.47,2a17.68,17.68,0,0,0,.45,1.74,7.16,7.16,0,0,1,0,1.83l.47.93v2.32c-.65,1.79-2.13,2.73-3.23,4L957,672.3c-34.64,0-30.54-.12-31.46.28v1.64c1.33,2.63.63,1.59,3.21,4.54H965c10.46-5.25,8.53-4.35,9.66-4.61l.45-1.67V670a2.75,2.75,0,0,1-.4-1,11.1,11.1,0,0,0-1-3.45c-.11-.28-.4-.57-.37-.82.13-.95-.64-1.69-.52-2.66a17.08,17.08,0,0,0,0-2.77c0-.9.25-1.86-.41-2.67v-1.94c-.21-.41-.49-.7-.46-1a4.25,4.25,0,0,0-.06-1.14c-.15-.72-.43-1.42-.52-2.15-.29-1-.66-2-1.05-3.12a.61.61,0,0,0,0-.12s0-.11-.05-.16c-.59-1.59-1.21-3.13-1.65-4.27a10.32,10.32,0,0,1-.63-1.68,10.24,10.24,0,0,0-.37-1.06l0-.08a23.89,23.89,0,0,1-1.23-3.21l-1.45-3.7a19.1,19.1,0,0,1,4.5-5.7h1.75c1.66.94,4.08,6.19,5.66,10.64,1,2.87,1.72,5.41,1.62,6.27.68,1,.18,2.26.83,3.26a.3.3,0,0,1,.07.19,1.87,1.87,0,0,1,0,.48c0,.45,0,1.26,0,2.76.16.29.3.56.45.86V667a12.55,12.55,0,0,1-5.08,7.12c-1.45,2.09-2.74,3.52-2.21,4.81,2.6,1,2.29,1,3.66.27h2.22a29,29,0,0,0,5.28-2.18,6.22,6.22,0,0,0,1.37-1.48c.38-.75,1.12-1,1.62-1.53a13.79,13.79,0,0,1,3.69-2.65,8.81,8.81,0,0,0,1-.72v-3.91c-.33-.84-.61-1.54-.87-2.25,0-.14,0-.31,0-.46-.13-.58.31-1,.44-1.51a1.76,1.76,0,0,0,0-.46c0-2.39,0-4.77,0-6.9l-.38-.8c-.33-2.8.31-5.34-.51-7.84a6.63,6.63,0,0,1,0-2.21,12,12,0,0,1-.45-1.6,7.61,7.61,0,0,0-1.17-3.35,14.52,14.52,0,0,1-.74-1.56,4.27,4.27,0,0,0,.52-2.08,1.21,1.21,0,0,1,.06-.68c.78-1.56,1-3.31,1.76-4.89a30.31,30.31,0,0,0,1.39-3.57,1.81,1.81,0,0,1,.86-1.08h7.53l.81-.43a13.44,13.44,0,0,0,2.84-.21c-.15-2.36-2.8-12.19-3.21-13.4.14-1-.67-1.72-.5-2.67-.44-.59-2.86-10.79-3.2-11.72a3.69,3.69,0,0,0-.51-2.3,8.44,8.44,0,0,1,3.75-4.31,29.69,29.69,0,0,0,2.84-1.88c2.44-1.66,2.43-1.9,4.12-4.74.49-.83.24-1.81.79-2.59a1.75,1.75,0,0,0,.11-.9A14.19,14.19,0,0,0,1007.46,576.68ZM973,584.36c2.2,1.84,3.82,4.25,6.54,5.83-.73.77-1.2,1.26-1.48,1.57l-3,1.74h-1l-3.87-1.9-1.53,1c-.41,0-.65-.27-.89-.62A24.21,24.21,0,0,1,973,584.36Zm-7.16,61.2c-1.07.56-1.85,1.6-3.28,1.76-1.5-1-3.21-5.14-3.67-6.71.85-1,2.24-.78,3-1.63h1.24C964.62,640.92,965.89,642.94,965.85,645.56ZM986.21,650l-.51.56h-2.84c-.94-.59-1-1.42-1.72-3.26v-3.36c.19-.21.39-.43.62-.7H984l1.63.57c.31,1,0,1.17.63,2Zm4.08-33.54a4.88,4.88,0,0,0-.39,2,7.46,7.46,0,0,0-.46,2c.08.91-.7,1.7-.45,2.66-.36.75-1.87,8.7-3.56,9.77a9,9,0,0,0-1.38-4.46c-1.11.08-1,1.15-1.51,1.6v4.71c.43,1.46.87,3,1.34,4.59l-.56.58h-1.93c-2.13-1.93-5.54-11.41-5.37-13.76a25.12,25.12,0,0,1-.87-3.09,1.16,1.16,0,0,1,0-.16c0-.6.08-1.24-.41-1.74.11-.87-.51-1.61-.49-2.43a14.34,14.34,0,0,0-.49-2.2,6.68,6.68,0,0,0-.13-1.36c-.41-1.06-.5-2.2-.92-3.25a22.63,22.63,0,0,1-.86-2.56c-.09-.34-.42-.6-.63-.88h-1.31l-.69.56a15.84,15.84,0,0,0-.14,2.31l-.32.57a8.55,8.55,0,0,1-.34,2.46c-.34.71-.08,1.49-.55,2.2a25.26,25.26,0,0,1-3.27,7.41c-2.18,3.06-2.76,2.55-3.71,3.65a.9.9,0,0,0-.07.23c.22,1.43,1.32.38,2.31,1.84-.68,1.41-2.18,1.68-3.14,2.69l1.18,1.29.07.65c-.37,1.13-1.4,1.4-2.23,1.88h-1.66a46.7,46.7,0,0,1-3.51-8.42v-3.55c2.55-6.39,9.05-20.47,9.11-20.57.12-.47,2.94-8.85,3.35-9.09.57.12.55.26,3.05,2.74h3.57c2.26,1.59,1.46,3.74,3.44,6.45h1.18c1-.37,1.24-1.41,1.73-2.14.13-1-.22-2,.46-2.77v-2.61c.24-.73.44-1.3.75-2.22l1.35-1.2,1.69-.53a3.94,3.94,0,0,1,2.8,3c-1.33,2.58-3,5-4.24,7.6.46.71,1.1.23,1.2.3a4.16,4.16,0,0,1,2,2.55v3.58c-.67,1-.42,2.13-.43,3.26a4.43,4.43,0,0,0,1.71,2.29H990A1.22,1.22,0,0,1,990.29,616.41Zm2.4-78.4c-.52,1.28-2.08,1.37-2.76,2.7.63,4.36.93,6.06-6.54,10a22.28,22.28,0,0,0-6.67,4.77c-1.8-3.59,6.85-5.78,6.28-9.84.88-.64,2-.84,2.63-1.94-.52-.47-1.26-.11-1.85-.47a5.22,5.22,0,0,0-1.9-.3l-2.22-1.12c-.54-1-.34-.59-.84-1.54v-4.16c-.46-.94-.93-1.89-1.43-2.94,3-3,2.05-5,3.92-7.72H984c.95.56,2.23.47,3.13,1.59,0,.6.07,1.36.11,2.35.62.89,1.27,2,2.1,3s1.85,1.85,2.67,2.66c.28.56.49,1,.73,1.43Z" transform="translate(-256.14 -420.81)"/><path class="cls-1" d="M982.63,528.41a8.38,8.38,0,0,0-1.09.61,1.17,1.17,0,0,0-.38.8l.62.67,1,.14,1.55,1.36.94-.19v-1.46A4.57,4.57,0,0,0,982.63,528.41Z" transform="translate(-256.14 -420.81)"/><path class="cls-1" d="M581.89,871.62q5.49,7.33,5.49,18.76,0,12.38-6.28,20.57-7.38,9.63-21,9.63-12.75,0-20-8.43-6.51-8.11-6.5-20.53,0-11.19,5.56-19.17,7.14-10.23,21.13-10.23Q574.86,862.22,581.89,871.62Zm-6.6,35.21a30.28,30.28,0,0,0,4.42-16.32q0-9.74-5.1-15.69t-13.93-5.94a18.11,18.11,0,0,0-14,5.89q-5.41,5.88-5.42,17.36,0,9.18,4.65,15.49t15.05,6.3Q570.87,913.92,575.29,906.83Z" transform="translate(-256.14 -420.81)"/><path class="cls-1" d="M600.14,863.73H609l27.54,44.62V863.73h7.15V919h-8.41l-28-44.57V919h-7.14Z" transform="translate(-256.14 -420.81)"/><path class="cls-1" d="M723.64,863.73v6.58H705V919h-7.56V870.31H678.86v-6.58Z" transform="translate(-256.14 -420.81)"/><path class="cls-1" d="M778.51,871.62Q784,879,784,890.38q0,12.38-6.28,20.57-7.37,9.63-21,9.63-12.75,0-20-8.43-6.49-8.11-6.5-20.53,0-11.19,5.56-19.17,7.14-10.23,21.13-10.23Q771.48,862.22,778.51,871.62Zm-6.6,35.21a30.28,30.28,0,0,0,4.42-16.32q0-9.74-5.1-15.69t-13.93-5.94a18.11,18.11,0,0,0-14,5.89q-5.42,5.88-5.42,17.36,0,9.18,4.65,15.49t15.05,6.3Q767.5,913.92,771.91,906.83Z" transform="translate(-256.14 -420.81)"/><path class="cls-1" d="M804.84,863.73v34.14a19.91,19.91,0,0,0,2.28,10q3.36,6,11.36,6,9.6,0,13-6.5a20.55,20.55,0,0,0,1.86-9.51V863.73h7.56v31q0,10.18-2.76,15.67-5.05,10-19.09,10t-19.05-10q-2.76-5.49-2.76-15.67v-31Z" transform="translate(-256.14 -420.81)"/><path class="cls-1" d="M857.12,863.73h25.1a24.6,24.6,0,0,1,10.23,1.84q7.63,3.54,7.64,13a14.66,14.66,0,0,1-2.05,8.12,14.84,14.84,0,0,1-5.73,5.07,11.35,11.35,0,0,1,4.87,3.46q1.64,2.15,1.82,7l.26,7.4a22.65,22.65,0,0,0,.53,4.7,4.6,4.6,0,0,0,2.41,3.39V919H893a7,7,0,0,1-.6-1.84,36.05,36.05,0,0,1-.37-4.37l-.46-9.21q-.26-5.41-3.9-7.25a15.7,15.7,0,0,0-6.54-1H864.6V919h-7.48Zm24.3,25.3a13.77,13.77,0,0,0,8.1-2.11c2-1.4,3-3.93,3-7.59q0-5.9-4.17-8.05a13.36,13.36,0,0,0-6-1.12H864.6V889Z" transform="translate(-256.14 -420.81)"/><text class="cls-2" transform="translate(0 408.29)">TRONJOUR</text></svg>